Plot
A post-apocalyptic tale, in which a lone man fights his way across America in order to protect a sacred book that holds the secrets to saving humankind.

Details
General
Complete name : The.Book.of.Eli.2010.CAM.LU.mp4
Format : MPEG-4
Format profile : Base Media
Codec ID : isom
File size : 401 MiB
Duration : 1h 48mn
Overall bit rate : 518 Kbps
Encoded date : UTC 2010-01-18 11:39:48
Tagged date : UTC 2010-01-18 11:39:48

Video
ID : 2
Format : AVC
Format/Info : Advanced Video Codec
Format profile : Baseline@L1.3
Format settings, CABAC : No
Format settings, ReFrames : 1 frame
Codec ID : avc1
Codec ID/Info : Advanced Video Coding
Duration : 1h 48mn
Bit rate mode : Variable
Bit rate : 384 Kbps
Width : 480 pixels
Height : 272 pixels
Display aspect ratio : 16:9
Frame rate mode : Constant
Frame rate : 29.970 fps
Resolution : 24 bits
Colorimetry : 4:2:0
Scan type : Progressive
Bits/(Pixel*Frame) : 0.098
Stream size : 298 MiB (74%)
Writing library : @6ElüR˜R

Audio
ID : 1
Format : AAC
Format/Info : Advanced Audio Codec
Format version : Version 4
Format profile : LC
Format settings, SBR : No
Codec ID : 40
Duration : 1h 48mn
Bit rate mode : Constant
Bit rate : 128 Kbps
Channel(s) : 2 channels
Channel positions : L R
Sampling rate : 48.0 KHz
Resolution : 16 bits
Stream size : 99.1 MiB (25%)